<svg id="Layer_1" data-name="Layer 1" xmlns="http://www.w3.org/2000/svg" viewBox="0 0 64 64">
  <defs>
    <style>
      .cls-1{fill:#9ac8f1;}
      .cls-2,.cls-7{fill:none;stroke-linecap:round;stroke-linejoin:round;stroke-width:2px;}
      .cls-2{stroke:#295183;}
      .cls-3{fill:#389ad6;}
      .cls-4{fill:#fff;}
      .cls-5{fill:#a8d2f0;}
      .cls-6{fill:#295183;}
      .cls-7{stroke:#a8d2f0;}
    </style>
  </defs>
  <title>science, chemistry, lab, laboratory, experiment</title>
  <path class="cls-1" d="M30.33,20.75c-.45-.06-.3.43-.2.68..."/>
  <path class="cls-2" d="M23.76,33.73a11,11,0,0,0-1.2,1..."/>
  <path class="cls-2" d="M34.53,55A12.25,12.25,0,0,0,43,44..."/>
  <path class="cls-2" d="M35.48,20.1a2.11,2.11,0,0,1,0,4.21h-9..."/>
  <path class="cls-1" d="M40.21,47.68c-.5,2.67-3.25,4.6-5.68..."/>
  <path class="cls-3" d="M40.21,47.68c-.5,2.67-3.25,4.6-5.68..."/>
  <path class="cls-3" d="M15.07,27s2.61-.23,1.61,2.08..."/>
  <path class="cls-1" d="M43.61,51.41s2.33-1.2,2.28,1.31..."/>
  <path class="cls-3" d="M33.83,40.09a.74.74,0,0,1-.09.32..."/>
  <path class="cls-3" d="M38.36,39.82a1.24,1.24,0,0,1-1.24,1.24..."/>
  <path class="cls-4" d="M37.47,39.42c.42,0,.6.9.07.89..."/>
  <path class="cls-2" d="M21.28,36.18c-.7.73-1.36,1.5-2,2.28..."/>
  <path class="cls-2" d="M15.92,32.23c-.38,2.32.24,5.22,1.88..."/>
  <path class="cls-2" d="M47.26,50.06c.18-2.69-.86-6-3.15..."/>
  <path class="cls-2" d="M19.49,27.66a5.79,5.79,0,0,1,.87-.31..."/>
  <circle class="cls-2" cx="17.13" cy="29.5" r="2.99"/>
  <circle class="cls-2" cx="46.52" cy="52.95" r="2.99"/>
  <path class="cls-2" d="M30,16.34a2.51,2.51,0,1,1,3.14-1.65"/>
  <path class="cls-2" d="M28.36,14.75a.7.7,0,0,0-.08-.24..."/>
  <path class="cls-5" d="M49.52,12.17c1,.92.26,1.57-.46,2.33..."/>
  <path class="cls-2" d="M51.54,20.68a4.94,4.94,0,0,1-1.24.79..."/>
  <circle class="cls-2" cx="48.17" cy="16.7" r="2.09"/>
  <!-- باقي العناصر SVG -->
</svg>
